<?xml version="1.0" encoding="utf-8"?>
<!-- Generator: Adobe Illustrator 22.1.0, SVG Export Plug-In . SVG Version: 6.00 Build 0)  -->
<svg version="1.1" id="Layer_1" xmlns="http://www.w3.org/2000/svg" xmlns:xlink="http://www.w3.org/1999/xlink" x="0px" y="0px"
	 viewBox="0 0 500 500" style="enable-background:new 0 0 500 500;" xml:space="preserve">
<g>
	<path d="M117.8,318.1c-20.1,0.8-39.9,0.8-58.6-8.4c7.9-3.4,15.7-6.8,24-10.3c-4.8-1-9.2-2-13.6-2.9c-13.4-2.8-26.7-5.6-40.1-8.5
		c-2.4-0.5-3.4-2.1-2.6-4.5c0.2-0.6,1.1-1.3,1.8-1.4c4.8-0.9,9.8-1.4,14.6-2.4c15.4-3.3,29.7-9.6,43.4-17.1
		c13.6-7.5,27.2-15.2,40.7-22.8c1.5-0.8,3.1-1.6,5-2.6c-3.7,0.3-6.9,0.5-10.2,0.7c-25.2,1.7-47.1-5-63.9-24.9
		c-0.3-0.4-0.5-0.8-1-1.5c3.2-0.6,6.1-1.3,9-1.8c15.4-3,30.8-5.9,46.2-8.9c4-0.8,7.9-1.6,11.9-2.2c7.7-1.3,14.7,4,15.5,11.8
		c0.1,0.8,0.2,1.5,0.4,2.6c0.7-0.4,1.2-0.6,1.7-0.9c3.1-1.9,6.1-3.9,9.2-5.8c1.2-0.8,1.4-1.4,0.5-2.6c-2.6-3.4-5.2-6.8-7.7-10.3
		c-1.2-1.6-0.9-2.2,1.1-2.5c8.5-1.2,16.9-2.4,25.4-3.7c0.3,0,0.5-0.2,0.9-0.4c-4.3-5.2-8.5-10.4-12.8-15.5c0.1-0.2,0.2-0.4,0.2-0.5
		c18.5,2.3,36.9,4.6,55.4,6.9c0.1-0.1,0.2-0.2,0.2-0.4c-5.7-6.2-11.3-12.3-17.4-19c10.7-1.2,20.8-2.4,31.3-3.6
		c-4.4-4.9-8.6-9.6-13-14.5c1.6-0.7,2.8-1.2,4.1-1.7c11.3-4.6,22.6-9.1,33.9-13.6c5.4-2.2,11-3.7,16.9-2.1c7.4,2,11.8,9.1,10.5,16.5
		c-0.8,4.3-1.6,8.5-2.2,12.8c-0.1,1.1,0.4,2.5,1.1,3.4c5.7,7.4,13,9.1,21.4,4.9c6.4-3.2,13-5.9,20-7.3c5.1-1,10.3-1.7,15.5-2.1
		c15.4-1.2,30.1-5,43.6-12.6c10-5.7,19.5-12.3,29.2-18.5c0.1-0.1,0.2-0.2,0.5-0.6c-8,1.2-15.6,2.4-23.6,3.6c0.3-0.7,0.4-1,0.6-1.2
		c6.5-7.4,12.9-15,19.7-22.2c3.6-3.9,8.1-6.7,13.4-7.9c5.3-1.2,10.1,0.1,14.2,3.5c2.5,2.1,4.6,4.6,6.7,7.1
		c5.3,6.5,10.5,13.2,15.8,19.8c5.5,6.9,9.6,14.6,13.6,22.4c1,2,2,4,3.1,5.9c1.2,2.2,1,2.5-1.5,3.1c-6.1,1.6-12.1,3.1-18.2,4.7
		c-13.3,3.6-25.3,9.7-35.3,19.4c-6,5.8-10.9,12.2-14.6,19.7c-5,10.4-11.4,19.7-20,27.5c-10.6,9.6-23,15.8-36.7,19.6
		c-25.2,7.1-50.5,14-75.7,21.1c-5.1,1.5-10,3.7-15,5.6c0.1,0.2,0.1,0.4,0.2,0.6c1.6-0.1,3.1-0.3,4.7-0.3c13.9-0.2,26.4,4,37.6,12.3
		c7.3,5.4,13.2,12.2,19,19.1c11.3,13.5,25.4,22.4,42.8,26c9.1,1.9,18.4,2.5,27.7,1.7c5.4-0.4,10.8-1,16.2-1.5
		c1.5-0.1,1.7-0.8,1.5-2.2c-1.2-6.8-2.3-13.6-3.5-20.5c-0.2-1.1-0.3-2.1-0.5-3.2c-0.5-2.8-0.2-3.2,2.5-3.5c7.7-0.8,14.5,1.4,19.9,7
		c3,3.1,5.6,6.5,8.4,9.7c2.6,3.1,5.3,6.1,8,9.1c0.7,0.8,1.3,1.4,0.6,2.5c-10.4,15.3-21.7,29.6-37.4,39.9
		c-11.2,7.3-23.2,12.5-36.4,14.9c-21.5,3.8-40.9-1.1-58.2-14.3c-10-7.6-18-17.1-25.7-26.9c-4.7-6-9.4-12-14.5-17.6
		c-7.8-8.6-17.7-13.4-29.2-14.7c-11.4-1.4-22,0.9-31.8,7c-3.3,2.1-5.7,4.8-7.3,8.3c-5.2,11.6-10.3,23.1-15.6,34.6
		c-5.2,11.4-10.7,22.6-18.4,32.5c-2.8,3.7-6,7.1-9.4,10.2c-7.9,7.1-17.2,9.2-27.6,7.4c-10.9-1.9-21.7-4-32-8
		c-14.1-5.3-26.7-12.9-36.4-24.7c-3.9-4.7-7-9.9-9.1-15.7c-0.9-2.5-0.8-3.2,1.6-4.6c16.8-10.1,33.6-20.1,50.5-30.2
		C108.8,323.4,113.3,320.8,117.8,318.1z"/>
</g>
</svg>
