<?xml version="1.0" encoding="utf-8"?>
<!-- Generator: Adobe Illustrator 22.1.0, SVG Export Plug-In . SVG Version: 6.00 Build 0)  -->
<svg version="1.1" id="Layer_1" xmlns="http://www.w3.org/2000/svg" xmlns:xlink="http://www.w3.org/1999/xlink" x="0px" y="0px"
	 viewBox="0 0 500 500" style="enable-background:new 0 0 500 500;" xml:space="preserve">
<style type="text/css">
	.st0{display:none;}
	.st1{display:inline;}
	.st2{fill:none;}
	.st3{fill:#FFFFFF;}
</style>
<g id="Layer_1_1_" class="st0">
	<g class="st1">
		<path d="M117.8,318.1c-20.1,0.8-39.9,0.8-58.6-8.4c7.9-3.4,15.7-6.8,24-10.3c-4.8-1-9.2-2-13.6-2.9c-13.4-2.8-26.7-5.6-40.1-8.5
			c-2.4-0.5-3.4-2.1-2.6-4.5c0.2-0.6,1.1-1.3,1.8-1.4c4.8-0.9,9.8-1.4,14.6-2.4c15.4-3.3,29.7-9.6,43.4-17.1
			c13.6-7.5,27.2-15.2,40.7-22.8c1.5-0.8,3.1-1.6,5-2.6c-3.7,0.3-6.9,0.5-10.2,0.7c-25.2,1.7-47.1-5-63.9-24.9
			c-0.3-0.4-0.5-0.8-1-1.5c3.2-0.6,6.1-1.3,9-1.8c15.4-3,30.8-5.9,46.2-8.9c4-0.8,7.9-1.6,11.9-2.2c7.7-1.3,14.7,4,15.5,11.8
			c0.1,0.8,0.2,1.5,0.4,2.6c0.7-0.4,1.2-0.6,1.7-0.9c3.1-1.9,6.1-3.9,9.2-5.8c1.2-0.8,1.4-1.4,0.5-2.6c-2.6-3.4-5.2-6.8-7.7-10.3
			c-1.2-1.6-0.9-2.2,1.1-2.5c8.5-1.2,16.9-2.4,25.4-3.7c0.3,0,0.5-0.2,0.9-0.4c-4.3-5.2-8.5-10.4-12.8-15.5c0.1-0.2,0.2-0.4,0.2-0.5
			c18.5,2.3,36.9,4.6,55.4,6.9c0.1-0.1,0.2-0.2,0.2-0.4c-5.7-6.2-11.3-12.3-17.4-19c10.7-1.2,20.8-2.4,31.3-3.6
			c-4.4-4.9-8.6-9.6-13-14.5c1.6-0.7,2.8-1.2,4.1-1.7c11.3-4.6,22.6-9.1,33.9-13.6c5.4-2.2,11-3.7,16.9-2.1
			c7.4,2,11.8,9.1,10.5,16.5c-0.8,4.3-1.6,8.5-2.2,12.8c-0.1,1.1,0.4,2.5,1.1,3.4c5.7,7.4,13,9.1,21.4,4.9c6.4-3.2,13-5.9,20-7.3
			c5.1-1,10.3-1.7,15.5-2.1c15.4-1.2,30.1-5,43.6-12.6c10-5.7,19.5-12.3,29.2-18.5c0.1-0.1,0.2-0.2,0.5-0.6
			c-8,1.2-15.6,2.4-23.6,3.6c0.3-0.7,0.4-1,0.6-1.2c6.5-7.4,12.9-15,19.7-22.2c3.6-3.9,8.1-6.7,13.4-7.9c5.3-1.2,10.1,0.1,14.2,3.5
			c2.5,2.1,4.6,4.6,6.7,7.1c5.3,6.5,10.5,13.2,15.8,19.8c5.5,6.9,9.6,14.6,13.6,22.4c1,2,2,4,3.1,5.9c1.2,2.2,1,2.5-1.5,3.1
			c-6.1,1.6-12.1,3.1-18.2,4.7c-13.3,3.6-25.3,9.7-35.3,19.4c-6,5.8-10.9,12.2-14.6,19.7c-5,10.4-11.4,19.7-20,27.5
			c-10.6,9.6-23,15.8-36.7,19.6c-25.2,7.1-50.5,14-75.7,21.1c-5.1,1.5-10,3.7-15,5.6c0.1,0.2,0.1,0.4,0.2,0.6
			c1.6-0.1,3.1-0.3,4.7-0.3c13.9-0.2,26.4,4,37.6,12.3c7.3,5.4,13.2,12.2,19,19.1c11.3,13.5,25.4,22.4,42.8,26
			c9.1,1.9,18.4,2.5,27.7,1.7c5.4-0.4,10.8-1,16.2-1.5c1.5-0.1,1.7-0.8,1.5-2.2c-1.2-6.8-2.3-13.6-3.5-20.5
			c-0.2-1.1-0.3-2.1-0.5-3.2c-0.5-2.8-0.2-3.2,2.5-3.5c7.7-0.8,14.5,1.4,19.9,7c3,3.1,5.6,6.5,8.4,9.7c2.6,3.1,5.3,6.1,8,9.1
			c0.7,0.8,1.3,1.4,0.6,2.5c-10.4,15.3-21.7,29.6-37.4,39.9c-11.2,7.3-23.2,12.5-36.4,14.9c-21.5,3.8-40.9-1.1-58.2-14.3
			c-10-7.6-18-17.1-25.7-26.9c-4.7-6-9.4-12-14.5-17.6c-7.8-8.6-17.7-13.4-29.2-14.7c-11.4-1.4-22,0.9-31.8,7
			c-3.3,2.1-5.7,4.8-7.3,8.3c-5.2,11.6-10.3,23.1-15.6,34.6c-5.2,11.4-10.7,22.6-18.4,32.5c-2.8,3.7-6,7.1-9.4,10.2
			c-7.9,7.1-17.2,9.2-27.6,7.4c-10.9-1.9-21.7-4-32-8c-14.1-5.3-26.7-12.9-36.4-24.7c-3.9-4.7-7-9.9-9.1-15.7
			c-0.9-2.5-0.8-3.2,1.6-4.6c16.8-10.1,33.6-20.1,50.5-30.2C108.8,323.4,113.3,320.8,117.8,318.1z"/>
	</g>
</g>
<g id="Layer_2_1_">
	<path class="st2" d="M363.3,361.2c0.4,2.3,0.6,4.5,0.9,6.7C363.9,365.8,363.6,363.5,363.3,361.2z"/>
	<path class="st2" d="M165.4,141.8c1,5.2,2.2,10.5,3.6,15.6C167.6,152.2,166.4,147,165.4,141.8L165.4,141.8z"/>
	<path class="st2" d="M168.9,157.4c1.6,5.8,3.4,11.6,5.5,17.3l0,0C172.4,169,170.5,163.2,168.9,157.4z"/>
	<path class="st2" d="M361.7,351c0.6,3.5,1.2,6.9,1.6,10.3C362.8,357.9,362.3,354.4,361.7,351z"/>
	<path class="st2" d="M364.1,368c0.5,4.4,1,8.8,1.2,13C365.1,376.8,364.7,372.4,364.1,368z"/>
	<path class="st2" d="M356.2,326.6c1,3.5,1.9,6.9,2.7,10.5C358,333.6,357.1,330.1,356.2,326.6z"/>
	<path class="st2" d="M350.6,309.5c0.9,2.2,1.7,4.5,2.4,6.8C352.3,314,351.5,311.8,350.6,309.5z"/>
	<path class="st2" d="M268.4,254.9c-4.1-0.5-8.4-0.9-12.8-0.9c-0.3,0-0.6,0-0.9,0l0,0c0.3,0,0.6,0,0.9,0
		C260,254.1,264.3,254.4,268.4,254.9z"/>
	<path class="st2" d="M365.4,381c0.6,7.4,0.9,14.4,1.1,20.8C366.4,395.4,366,388.4,365.4,381z"/>
	<path class="st2" d="M161.2,112.5c0.4,4.1,0.8,8.2,1.4,12.4l0,0C162.1,120.7,161.6,116.5,161.2,112.5z"/>
	<path class="st2" d="M354.1,319.8c0.7,2.3,1.4,4.6,2,6.9C355.5,324.3,354.8,322,354.1,319.8z"/>
	<path class="st2" d="M160.2,59c0.2-2.5,0.3-3.8,0.3-4l0,0l0,0C160.5,55.2,160.4,56.6,160.2,59z"/>
	<path class="st2" d="M349.4,423.9c0-1.2,0.1-2.4,0.1-3.7C349.5,421.4,349.5,422.6,349.4,423.9z"/>
	<path class="st2" d="M175.3,212.7c-1.3-1.9-2.7-3.9-3.9-5.8C172.7,208.8,174,210.8,175.3,212.7z"/>
	<path class="st2" d="M268.4,254.9c2.7,0.4,5.4,0.9,8,1.5C273.8,255.8,271.2,255.3,268.4,254.9z"/>
	<path class="st2" d="M159.7,75.2c0-0.7,0-1.3,0-2C159.8,73.8,159.7,74.5,159.7,75.2L159.7,75.2z"/>
	<path class="st2" d="M196.5,212.3c-5.7-6.2-10.5-13.2-14.5-20.8l0,0C186.1,199.1,190.9,206.2,196.5,212.3c5.7,6.2,12,11.3,19,15.2
		C208.5,223.5,202.2,218.5,196.5,212.3z"/>
	<path class="st2" d="M366.5,404.6c0,1.8,0.1,3.5,0.1,5.2C366.5,408.1,366.5,406.3,366.5,404.6z"/>
	<path class="st2" d="M366.5,414.7c0,1.5,0,3-0.1,4.4C366.5,417.7,366.5,416.2,366.5,414.7z"/>
	<path class="st2" d="M366.4,421.2c-0.1,1.9-0.1,3.8-0.2,5.5C366.4,425,366.4,423.3,366.4,421.2z"/>
	<path class="st2" d="M211.4,244.5c-1.4-0.7-2.9-1.5-4.3-2.3C208.5,242.9,210,243.7,211.4,244.5z"/>
	<path class="st2" d="M203,239.7c-1.3-0.9-2.7-1.8-4.1-2.7C200.2,237.9,201.6,238.8,203,239.7z"/>
	<path class="st2" d="M160.2,97.8c-0.1-1.9-0.2-3.7-0.3-5.5C160.1,94.1,160.1,95.9,160.2,97.8z"/>
	<path class="st2" d="M166.2,197.6c-1.1-2.1-2.1-4.3-3.1-6.4C164.1,193.3,165.1,195.5,166.2,197.6z"/>
	<path class="st2" d="M163.1,191.1c-1.5-3.3-2.8-6.6-4.2-9.9C160.2,184.6,161.6,187.9,163.1,191.1z"/>
	<path class="st2" d="M160.6,55l-16.8-1.5L160.6,55z"/>
	<path class="st2" d="M349.3,428.6c0.1-1.4,0.1-3,0.2-4.8C349.4,425.6,349.3,427.2,349.3,428.6z"/>
	<path class="st2" d="M160.2,59c-0.1,2.1-0.3,5-0.4,8.4C160,64,160.2,61.1,160.2,59z"/>
	<path class="st2" d="M146.2,129.6c-0.4-2.2-0.6-4.5-0.9-6.7C145.5,125.2,145.9,127.4,146.2,129.6z"/>
	<path class="st2" d="M159.9,69.3c0,1.2-0.1,2.6-0.1,3.9C159.8,71.8,159.8,70.5,159.9,69.3z"/>
	<path class="st2" d="M160.5,103.6c-0.1-1.9-0.3-3.9-0.4-5.8C160.3,99.7,160.4,101.6,160.5,103.6z"/>
	<path class="st2" d="M143.8,106.8c-0.2-2-0.3-4.1-0.4-6.1C143.5,102.7,143.6,104.7,143.8,106.8z"/>
	<path class="st2" d="M143.2,97.7c-0.1-1.9-0.2-3.9-0.3-5.8C143.1,93.9,143.1,95.8,143.2,97.7z"/>
	<path class="st2" d="M144.3,113.1c-0.2-2.1-0.4-4.3-0.5-6.3C143.9,108.9,144.1,111,144.3,113.1z"/>
	<path class="st2" d="M254.7,237.2L254.7,237.2c-13.2-0.1-25.1-2.7-35.6-7.9C229.5,234.4,241.5,237.1,254.7,237.2z"/>
	<path class="st2" d="M349.6,415.4c0,0.2,0,0.4,0,0.6C349.6,415.8,349.6,415.6,349.6,415.4L349.6,415.4z"/>
	<path class="st2" d="M344.9,296.4c1.1,2.1,2,4.3,2.9,6.5C346.9,300.6,346,298.5,344.9,296.4z"/>
	<path class="st2" d="M161,109.5c-0.2-2-0.4-4-0.4-5.9C160.7,105.5,160.8,107.5,161,109.5z"/>
	<path class="st2" d="M154.3,167.6c-1.7-5.8-3.2-11.5-4.4-17.4C151.1,156,152.6,161.9,154.3,167.6z"/>
	<path class="st2" d="M171.4,206.8c-1.2-2-2.4-4.1-3.5-6.1C169,202.8,170.2,204.8,171.4,206.8z"/>
	<path class="st2" d="M349,433.3c0.1-0.9,0.1-2,0.2-3.4C349.2,431.2,349.1,432.4,349,433.3z"/>
	<path class="st2" d="M334.3,278c1.3,1.9,2.7,3.9,3.9,5.8C336.9,281.9,335.6,280,334.3,278z"/>
	<g>
		<path d="M255.6,237.3c6.1,0,12,0.4,17.6,1.4C267.6,237.7,261.6,237.3,255.6,237.3c-0.3,0-0.6,0-0.9,0l0,0
			C255,237.2,255.2,237.3,255.6,237.3z"/>
	</g>
	<g>
		<path d="M276.3,239.2c4.7,1,9.3,2.2,13.6,3.8C285.6,241.4,281,240.1,276.3,239.2z"/>
	</g>
	<g>
		<path d="M237.2,252.6c-6.7-1.2-13.1-2.8-19.1-5.2C224.1,249.8,230.5,251.5,237.2,252.6z"/>
	</g>
	<g>
		<path d="M237.2,252.6c5.6,1,11.4,1.4,17.5,1.4l0,0C248.7,254,242.8,253.6,237.2,252.6z"/>
	</g>
	<path d="M159.7,77.4c0-0.8,0-1.5,0-2.3l0,0C159.7,75.9,159.7,76.7,159.7,77.4z"/>
	<path d="M159.8,84.5c0-2.5-0.1-4.9,0-7.1C159.7,79.7,159.7,82,159.8,84.5z"/>
	<path d="M162.6,124.9L162.6,124.9L162.6,124.9L162.6,124.9z"/>
	<path d="M164.7,137.9c0.3,1.3,0.4,2.6,0.7,3.9l0,0C165.1,140.4,164.9,139.2,164.7,137.9z"/>
	<path d="M164.7,137.9c-0.4-2.1-0.7-4.3-1.1-6.5C163.9,133.5,164.2,135.7,164.7,137.9z"/>
	<path d="M163.5,131.4c-0.4-2.1-0.6-4.3-0.9-6.4C162.9,127.1,163.3,129.3,163.5,131.4z"/>
	<path d="M180.4,188.5c0.5,1,1,1.9,1.5,3l0,0C181.5,190.5,181,189.5,180.4,188.5z"/>
	<path d="M174.5,174.6L174.5,174.6c1.8,4.8,3.8,9.4,6,13.8C178.2,184,176.3,179.4,174.5,174.6z"/>
	<path d="M365.6,53.5L348.8,55c0,0.3,0.7,8,0.8,20.1H171.2c-0.1,5,0,10.6,0.2,16.8h177.9c-0.4,9.9-1.2,21.2-2.7,32.9H174.2
		c0.8,5.6,1.7,11.2,2.8,16.8H344c-2.1,11.1-5.1,22.2-9.1,32.9H186.7c2.5,5.9,5.2,11.6,8.5,16.8h132c-4.1,7.6-8.9,14.7-14.5,20.8
		c-7.2,7.8-15.3,13.8-24.5,17.9c6.9,2,13.6,4.9,19.8,8.3c6.2-4.2,12-9.1,17.3-14.9C375.6,168.5,366,58.2,365.6,53.5z"/>
	<path d="M349.6,411.5c0,1.3,0,2.6,0,3.8l0,0C349.6,414.1,349.6,412.8,349.6,411.5z"/>
	<path d="M337.9,398.5H160c0.4-9.9,1.2-21.2,2.7-32.9h172.6c-0.7-5.6-1.7-11.2-2.8-16.8H165.3c2.1-11.1,5.1-22.3,9-32.9h148.2
		c-2.4-5.9-5.2-11.6-8.5-16.8H182c4-7.5,8.8-14.5,14.4-20.6c7.3-7.9,15.3-13.8,24.5-17.9c-6.8-2.1-13.4-5-19.5-8.4
		c-6.3,4.2-12.1,9.1-17.5,15c-50.1,54.9-40.4,166.1-40,170.8l16.7-1.5c0-0.3-0.7-8.3-0.8-20.9h178.4
		C338.2,410.4,338.1,404.7,337.9,398.5z"/>
	<g>
		<path d="M366.5,404.6c0-0.9,0-1.8-0.1-2.7c-0.2-6.4-0.4-13.5-1.1-20.8c-0.4-4.3-0.8-8.6-1.2-13c-0.3-2.2-0.5-4.4-0.9-6.7
			c-0.4-3.4-1-6.8-1.6-10.3c-0.8-4.6-1.8-9.2-2.8-13.9c-0.8-3.5-1.7-7-2.7-10.5c-0.6-2.3-1.3-4.6-2-6.9c-0.4-1.2-0.7-2.3-1.2-3.5
			c-0.8-2.3-1.6-4.5-2.4-6.8c-0.8-2.3-1.8-4.4-2.7-6.6s-1.9-4.3-2.9-6.5c-2-4.3-4.3-8.4-6.8-12.4c-1.2-2-2.5-4-3.9-5.8
			c-2.7-3.8-5.6-7.4-8.7-10.9c-2.8-3.1-5.8-5.9-8.9-8.6c-1.2-1.1-2.5-2-3.8-3c-1.2-1-2.6-1.9-3.9-2.8c-4.2-2.8-8.6-5.2-13.1-7.4
			c-1.9-0.9-3.9-1.7-5.9-2.4c-4.3-1.6-8.9-2.8-13.6-3.8c-1.1-0.2-2.1-0.4-3.2-0.6c-5.7-0.9-11.5-1.4-17.6-1.4c-0.3,0-0.6,0-0.9,0
			c-13.2-0.1-25.1-2.7-35.6-7.9c-1.2-0.6-2.4-1.2-3.5-1.9c-7-3.9-13.3-8.9-19-15.2S186,199,182,191.4c-0.5-1-1.1-1.9-1.5-3
			c-2.2-4.4-4.3-9.1-6-13.8c-2.1-5.6-4-11.4-5.5-17.3c-1.4-5.2-2.6-10.5-3.6-15.6c-0.3-1.3-0.5-2.6-0.7-3.9
			c-0.4-2.1-0.7-4.3-1.1-6.5s-0.6-4.3-0.9-6.4v-0.1c-0.5-4.3-1-8.3-1.4-12.4c-0.1-1-0.2-2-0.3-3c-0.2-2-0.4-4-0.4-5.9
			c-0.1-1.9-0.3-3.9-0.4-5.8c-0.1-1.9-0.2-3.7-0.3-5.5c0-0.1,0-0.2,0-0.3c-0.1-2.6-0.2-5.1-0.2-7.5c0-2.5-0.1-4.9,0-7.1
			c0-0.8,0-1.5,0-2.3c0-0.7,0-1.3,0-2c0-1.3,0.1-2.7,0.1-3.9c0-0.6,0-1.2,0.1-1.8c0.1-3.5,0.3-6.4,0.4-8.4c0.2-2.5,0.3-3.8,0.3-4
			l0,0l0,0l-16.7-1.5c-0.2,1.7-1.5,17-0.8,38.5c0.1,1.9,0.2,3.8,0.3,5.8c0.1,1,0.1,1.9,0.2,3c0.1,2,0.3,4.1,0.4,6.1
			c0.1,2,0.4,4.2,0.5,6.3c0.3,3.2,0.6,6.5,1.1,9.8c0.3,2.2,0.5,4.4,0.9,6.7c1,6.7,2.1,13.6,3.7,20.6c1.2,5.8,2.7,11.6,4.4,17.4
			c1.4,4.6,2.9,9.1,4.6,13.6c1.2,3.4,2.7,6.6,4.2,9.9c1,2.1,2,4.3,3.1,6.4c0.5,1.1,1.1,2.1,1.7,3.1c1.2,2,2.3,4.1,3.5,6.1
			s2.6,4,3.9,5.8c2.7,3.8,5.6,7.5,8.8,11c4.6,5.1,9.6,9.5,14.9,13.3c1.3,1,2.7,1.9,4.1,2.7c1.3,0.9,2.7,1.7,4.2,2.5
			c1.4,0.8,2.8,1.5,4.3,2.3c0.7,0.4,1.3,0.6,2,1c1.5,0.7,3,1.3,4.6,1.9c6,2.4,12.4,4.2,19.1,5.2c5.6,1,11.4,1.4,17.5,1.4
			c0.3,0,0.6,0,0.9,0c4.4,0,8.8,0.3,12.8,0.9c2.7,0.4,5.4,0.9,8,1.5c14.3,3.5,26.4,10.7,36.7,22c3.5,3.9,6.7,8.1,9.6,12.6
			c1.2,1.8,2.3,3.6,3.3,5.5c0.4,0.9,1,1.7,1.4,2.6c0.5,1.1,1.2,2.1,1.7,3.2c0.4,1,1,1.9,1.4,2.9c0.9,1.9,1.8,4,2.7,6
			c0.6,1.5,1.2,3.1,1.9,4.6c0.2,0.5,0.4,1.1,0.6,1.6c0.8,2.1,1.5,4.2,2.1,6.3c1.3,4.3,2.6,8.6,3.6,12.9c0.3,1.1,0.5,2.2,0.8,3.3
			c0.5,2.2,1,4.3,1.4,6.6c0.2,0.7,0.3,1.5,0.4,2.2c0.3,1.4,0.5,2.8,0.8,4.3c0.6,3.3,1.1,6.6,1.5,9.7c0.1,1,0.3,1.9,0.4,2.8
			c0.9,6.6,1.5,12.9,1.9,19c0.1,1,0.2,1.9,0.2,2.9c0.3,3.8,0.4,7.4,0.5,10.9c0,1.1,0.1,2,0.1,3c0.1,3.5,0.2,6.8,0.2,9.9
			c0,1.3,0,2.6,0,3.8c0,0.2,0,0.4,0,0.6c0,1.4,0,2.8-0.1,4.1c0,1.3-0.1,2.6-0.1,3.7c-0.1,1.8-0.1,3.4-0.2,4.8c0,0.4-0.1,0.9-0.1,1.3
			c-0.1,1.3-0.2,2.4-0.2,3.4c-0.1,1.9-0.2,2.8-0.2,3l16.7,1.6c0.1-0.7,0.4-4.1,0.6-9.4c0-0.5,0.1-1.2,0.1-1.7
			c0.1-1.7,0.2-3.5,0.2-5.5c0-0.7,0-1.4,0.1-2.2c0-1.4,0.1-2.8,0.1-4.4c0-1.6,0-3.2,0-4.9C366.5,408.1,366.5,406.3,366.5,404.6z"/>
	</g>
	<path class="st3" d="M160.6,55L160.6,55L160.6,55z"/>
</g>
</svg>
