<?xml version="1.0" encoding="utf-8"?>
<!-- Generator: Adobe Illustrator 22.1.0, SVG Export Plug-In . SVG Version: 6.00 Build 0)  -->
<svg version="1.1" xmlns="http://www.w3.org/2000/svg" xmlns:xlink="http://www.w3.org/1999/xlink" x="0px" y="0px"
	 viewBox="0 0 500 200" style="enable-background:new 0 0 500 200;" xml:space="preserve">
<style type="text/css">
	.st0{display:none;}
	.st1{display:inline;}
	.st2{fill:#4FAE32;}
	.st3{display:inline;fill:#FFFFFF;stroke:#000000;stroke-miterlimit:10;}
	.st4{fill:none;stroke:#FFFFFF;stroke-miterlimit:10;}
	.st5{fill:#B3B2B2;}
	.st6{opacity:0.15;}
	.st7{fill:#020203;}
	.st8{fill:#FFFFFF;}
	.st9{fill:#8D8D8E;}
</style>
<g id="Layer_3" class="st0">
	<g class="st1">
		<rect class="st2" width="500" height="200"/>
	</g>
</g>
<g id="Layer_1" class="st0">
	<rect x="182.5" y="14" class="st3" width="135" height="135"/>
</g>
<g id="Layer_2">
	<polygon class="st4" points="330,146.2 325.2,138.6 325.1,138.6 325.1,112.2 317.5,107.2 309.9,112.2 309.9,138.6 302.7,138.6 
		294.8,126 205.4,126 197.4,138.6 190.1,138.6 190.1,112.2 182.5,107.2 174.9,112.2 174.9,138.6 174.9,138.6 170,146.2 174.9,153.8 
		197.4,153.8 205.4,166.3 294.6,166.3 302.6,153.8 325.2,153.8 	"/>
	<polygon class="st5" points="325.2,153.8 330,146.2 325.2,138.6 174.9,138.6 170,146.2 174.9,153.8 	"/>
	<polygon class="st5" points="190.1,152.5 190.1,112.2 182.5,107.2 174.9,112.2 174.9,152.5 	"/>
	<polygon class="st5" points="325.1,152.5 325.1,112.2 317.5,107.2 309.9,112.2 309.9,152.5 	"/>
	<g class="st6">
		<polygon class="st7" points="329.5,145.6 324.8,153.1 214.2,153.1 175.4,153.1 170.5,145.6 170.1,146.2 175,153.7 214.2,153.7 
			325.2,153.7 329.9,146.2 		"/>
	</g>
	<polygon class="st8" points="199,167.6 185.2,146.2 199,124.8 301.3,124.8 315,146.2 301.3,167.6 	"/>
	<path class="st9" d="M300.1,127l12.2,19.2l-12.2,19.2H200.1l-12.2-19.2l12.2-19.2H300.1 M302.6,122.5h-105l-15.1,23.7l15.1,23.7
		h104.8l15.1-23.7L302.6,122.5L302.6,122.5z"/>
</g>
</svg>
